HIERARCHY
ROOT Hips
{
	OFFSET	0	0	0
	CHANNELS 6  Xposition Yposition Zposition Xrotation Yrotation Zrotation
	JOINT Spine
	{
		OFFSET	0	6.81137	1.36784
		CHANNELS 3  Xrotation Yrotation Zrotation
		JOINT Spine1
		{
			OFFSET	0	11.6648	-2.083
			CHANNELS 3  Xrotation Yrotation Zrotation
			JOINT Spine2
			{
				OFFSET	0	8.84235	0.947767
				CHANNELS 3  Xrotation Yrotation Zrotation
				JOINT Spine3
				{
					OFFSET	0	10.5817	3.14534
					CHANNELS 3  Xrotation Yrotation Zrotation
					JOINT Spine4
					{
						OFFSET	0	15.6642	-1.60391
						CHANNELS 3  Xrotation Yrotation Zrotation
						JOINT Neck
						{
							OFFSET	0	7.47798	-5.23875
							CHANNELS 3  Xrotation Yrotation Zrotation
							JOINT Head
							{
								OFFSET	0	8.97775	-2.68707
								CHANNELS 3  Xrotation Yrotation Zrotation
								End Site
								{
									OFFSET	0	18.7262	-0.906107
								}
							}
						}
					}
					JOINT LeftShoulder
					{
						OFFSET	-4.49929	19.0387	-8.97775
						CHANNELS 3  Xrotation Yrotation Zrotation
						JOINT LeftArm
						{
							OFFSET	-9.81417	-2.68707	3.44739
							CHANNELS 3  Xrotation Yrotation Zrotation
							JOINT LeftForeArm
							{
								OFFSET	-33.0157	-1.50689	2.35663
								CHANNELS 3  Xrotation Yrotation Zrotation
								JOINT LeftHand
								{
									OFFSET	-25.9733	-1.7949	1.85395
									CHANNELS 3  Xrotation Yrotation Zrotation
									End Site
									{
										OFFSET	-9.47896	-0.655051	0.676554
									}
								}
							}
						}
					}
					JOINT RightShoulder
					{
						OFFSET	4.49929	19.0387	-8.97775
						CHANNELS 3  Xrotation Yrotation Zrotation
						JOINT RightArm
						{
							OFFSET	9.81417	-2.68707	3.44739
							CHANNELS 3  Xrotation Yrotation Zrotation
							JOINT RightForeArm
							{
								OFFSET	33.0157	-1.50689	2.35663
								CHANNELS 3  Xrotation Yrotation Zrotation
								JOINT RightHand
								{
									OFFSET	25.9733	-1.7949	1.85395
									CHANNELS 3  Xrotation Yrotation Zrotation
									End Site
									{
										OFFSET	9.47896	-0.655051	0.676554
									}
								}
							}
						}
					}
				}
			}
		}
	}
	JOINT LeftUpLeg
	{
		OFFSET	-9.2746	-3.40568	-0.68392
		CHANNELS 3  Xrotation Yrotation Zrotation
		JOINT LeftLeg
		{
			OFFSET	-2.10167	-41.1814	-0.643755
			CHANNELS 3  Xrotation Yrotation Zrotation
			JOINT LeftFoot
			{
				OFFSET	-2.05436	-37.8685	3.25669
				CHANNELS 3  Xrotation Yrotation Zrotation
				JOINT LeftToeBase
				{
					OFFSET	0	-4.68304	-12.4382
					CHANNELS 3  Xrotation Yrotation Zrotation
					End Site
					{
						OFFSET	0	-1.87322	-7.49286
					}
				}
			}
		}
	}
	JOINT RightUpLeg
	{
		OFFSET	9.2746	-3.40568	-0.68392
		CHANNELS 3  Xrotation Yrotation Zrotation
		JOINT RightLeg
		{
			OFFSET	2.10167	-41.1814	-0.643755
			CHANNELS 3  Xrotation Yrotation Zrotation
			JOINT RightFoot
			{
				OFFSET	2.05436	-37.8685	3.25669
				CHANNELS 3  Xrotation Yrotation Zrotation
				JOINT RightToeBase
				{
					OFFSET	0	-4.68304	-12.4382
					CHANNELS 3  Xrotation Yrotation Zrotation
					End Site
					{
						OFFSET	0	-1.87322	-7.49286
					}
				}
			}
		}
	}
}
MOTION
Frames: 19
Frame Time: 0.020409
 0 -8.14858 3.02214 -0 0 -0 -0 0 -0 -0 0 -0 -0 0 -0 -0 0 -0 -0 0 -0 -0 0 -0 -0 0 -0 -0 0 -0 -0 0 -0 -0 0 -0 -0 0 -0 -0 0 -0 -0 0 -0 -0 0 -0 -0 0 -0 -0 0 -0 -0 0 -0 -0 0 -0 -0 0 -0 -0 0 -0 -0 0 -0 -0 0 -0 -0 0 -0
 -68.5198 90.2631 -238.593 30.9528 -52.8586 25.7366 180 179.997 -179.865 169.038 179.994 -179.776 168.317 179.983 -179.776 170.531 179.997 -179.865 1.38849 0.00108738 0.044862 14.3456 1.06868 2.95699 4.32669 -2.70976 0.912853 1.3088 7.88234 2.32139 11.0695 -38.6161 75.3873 21.8198 -6.3469 0.905449 -0 3.00157 -10.006 0.204133 22.8874 -0.442003 0.701137 18.4325 -73.9316 135.485 173.777 -171.562 -0 68.1283 53.592 165.44 -97.3462 -168.013 177.829 139.703 -179.914 3.43311 0.0471681 -11.3917 2.31945 0 0 155.864 146.714 -179.931 7.37062 20.4202 -0.035031 175.871 -179.994 168.515 0.834495 0 0
 -68.559 90.194 -238.885 32.2957 -53.6506 27.0044 1.70553e-05 -0.00433542 0.225397 168.848 -179.991 -179.624 168.128 -179.974 -179.624 170.406 -179.996 -179.775 1.31948 0.00173009 0.0751123 14.3166 1.23928 3.22152 4.3223 -2.84482 0.999814 1.30647 6.9502 2.34362 10.7082 -38.173 74.6072 21.8415 -6.33136 0.71382 -0 2.72631 -9.63492 0.133288 22.1922 -0.288305 1.34276 18.9305 -74.1566 135.019 173.513 -171.178 -0 67.3715 52.8058 167.908 -97.3864 -164.865 177.823 139.674 -179.851 4.02094 0.067104 -11.4131 2.32957 0 0 156.441 145.792 179.558 6.21668 21.1322 -0.112013 176.517 179.983 168.493 0.840261 0 0
 -68.6395 90.3172 -238.996 33.3344 -54.0664 28.1116 0.00012706 -0.025646 0.283861 168.636 -179.949 -179.527 167.929 -179.846 -179.527 170.3 -179.974 -179.716 1.16827 0.0019292 0.0946008 14.0547 1.48902 3.84718 4.25498 -3.35425 1.19011 1.36799 6.31736 2.47249 10.1073 -37.6431 74.5229 21.8075 -6.22218 0.503612 -0 2.42296 -9.27599 0.139408 21.486 -0.30118 2.1785 19.4244 -74.0971 134.587 173.27 -170.856 -0 66.582 52.0119 169.042 -97.424 -163.671 178.078 139.672 -179.792 4.71426 0.0336777 -11.4271 2.34052 0 0 157.55 144.595 178.678 4.42422 16.9402 -0.0731999 176.493 179.791 168.442 0.844952 0 0
 -69.2409 90.4946 -238.589 34.5895 -54.9654 30.0483 4.51181e-05 -0.0103123 0.250678 168.423 -179.979 -179.582 167.744 -179.938 -179.582 170.246 -179.99 -179.749 0.892014 0.00130085 0.0835492 13.453 1.70414 4.09493 4.07861 -3.32147 1.26358 1.30655 4.80479 2.40212 10.8166 -37.5165 74.4034 21.7181 -6.23634 0.646784 -0 2.05923 -8.9336 0.561475 20.9876 -1.21196 4.38845 19.7723 -73.6477 134.476 173.125 -170.619 -0 65.6521 51.5067 168.129 -97.2339 -164.354 177.594 139.547 179.719 5.18154 0.00119885 -11.4564 2.35148 0 0 160.121 143.419 177.108 1.93503 13.5373 0.0904501 175.936 179.817 168.469 0.8491 0 0
 -69.8876 90.4756 -238.19 36.1731 -55.6397 32.016 3.36816e-05 -0.00778297 0.247952 168.108 -179.984 -179.587 167.465 -179.953 -179.587 170.141 -179.992 -179.752 0.542617 0.000782727 0.0826468 12.7429 2.23033 4.15699 3.86586 -2.55327 1.30749 1.22419 2.94157 2.29548 11.5593 -37.7991 73.8902 21.517 -5.99743 0.799364 -0 1.79767 -8.12757 0.890279 20.0366 -1.91804 5.59443 19.8691 -72.624 134.409 173.045 -170.753 -0 64.6649 50.9964 163.45 -96.9617 -168.644 177.486 139.343 -179.895 5.2383 0.0131242 -11.4426 2.36139 0 0 162.49 142.54 175.744 179.158 169.064 179.872 176.609 179.864 168.51 0.851067 0 0
 -70.1123 90.4639 -238.185 36.919 -56.2188 33.0594 6.85255e-06 -0.00161377 0.243293 167.867 -179.997 -179.595 167.161 -179.99 -179.595 169.793 -179.998 -179.757 0.898562 0.00127179 0.0810876 14.0115 2.12232 3.71975 4.23948 -2.27592 1.20076 1.28625 0.624285 2.46708 10.3231 -37.6171 73.2486 21.3181 -6.05405 0.526727 -0 1.77486 -7.05043 1.11785 19.7267 -2.40685 6.54302 20.3496 -71.8206 134.211 173.224 -171.007 -0 63.68 50.2576 160.03 -96.969 -171.837 178.388 138.921 -179.878 5.11171 0.0165262 -11.4775 2.36887 0 0 164.703 141.687 174.372 175.732 171.061 179.971 177.921 179.848 168.51 0.853223 0 0
 -70.3586 90.5221 -237.785 36.8952 -56.7169 33.6167 180 179.998 -179.775 167.66 179.995 -179.624 166.914 179.986 -179.624 169.535 179.998 -179.775 1.10951 0.00145509 0.075132 14.8079 2.51798 3.63857 4.47783 -1.71889 1.22063 1.37626 -1.15024 2.68217 9.14048 -37.4543 71.7061 21.1477 -6.19231 0.47423 -0 1.73061 -5.8829 1.36553 19.4288 -2.93845 7.36673 20.8706 -71.2985 133.982 173.267 -170.907 -0 62.7346 49.4674 155.956 -96.8204 -176.501 178.707 138.468 179.766 3.92725 -0.0134969 -11.4671 2.3761 0 0 167.319 141.266 172.846 172.826 172.874 179.829 177.872 179.939 168.543 0.857061 0 0
 -70.5822 90.8417 -237.615 36.77 -57.3903 34.1726 180 179.997 -179.81 167.56 179.994 -179.683 166.783 179.983 -179.683 169.376 179.997 -179.81 1.29173 0.00142988 0.0634126 15.4235 2.67886 3.58441 4.66218 -1.50826 1.22708 1.39214 -2.70191 2.74838 8.46637 -37.223 70.9003 20.9881 -6.1763 0.533607 -0 1.70556 -4.85093 1.40471 19.0986 -3.02036 7.92394 21.3305 -71.0539 133.756 173.13 -170.69 -0 61.859 48.692 150.111 -96.8092 176.971 179.259 137.895 179.927 2.12336 0.0200785 -11.4838 2.38176 0 0 169.55 140.905 171.538 170.835 174.296 179.93 177.453 179.946 168.592 0.861211 0 0
 -70.9765 90.867 -237.39 36.3908 -58.0642 34.3274 180 179.999 -179.822 167.537 179.998 -179.703 166.725 179.995 -179.703 169.256 179.999 -179.822 1.52835 0.00158372 0.0593572 16.1306 2.8061 3.37451 4.87104 -1.13142 1.18655 1.34662 -4.00501 2.68555 8.17496 -37.0738 70.3298 20.8139 -6.20286 0.516549 -0 1.64289 -3.8592 1.4137 18.7643 -3.03707 8.38189 21.9449 -70.7432 133.434 172.743 -170.108 -0 61.0729 47.9171 143.645 -96.6656 169.932 179.894 137.506 179.969 179.681 179.995 168.511 2.38445 0 0 171.44 140.786 170.801 169.762 175.543 179.937 176.96 179.97 168.688 0.867094 0 0
 -71.4566 90.9014 -237.273 36.6813 -59.3713 35.2524 180 179.997 -179.834 167.549 179.994 -179.724 166.707 179.983 -179.724 169.172 179.997 -179.834 1.74705 0.00168309 0.0551812 16.7394 2.77226 3.42453 5.05535 -1.33953 1.20921 1.33709 -5.04481 2.68701 8.22518 -36.9455 70.0734 20.6867 -6.39204 0.64314 -0 1.5805 -2.89629 1.30734 18.5564 -2.80683 8.93952 22.934 -70.2392 132.848 171.9 -169.191 -0 60.3358 46.9393 137.697 -96.5067 163.491 0.365179 42.6672 -0.112914 178.942 179.956 168.519 2.38882 0 0 173.245 141.032 170.532 169.493 176.815 -179.841 175.778 -179.983 168.947 0.875821 0 0
 -71.9339 90.914 -237.091 37.1621 -60.5253 36.2964 1.93288e-05 -0.00676114 0.163797 167.575 -179.986 -179.727 166.71 -179.959 -179.727 169.119 -179.993 -179.836 1.91942 0.00182873 0.0545683 17.1959 3.0477 3.54731 5.1953 -1.22285 1.27294 1.37712 -5.3571 2.7737 8.36178 -36.4956 69.8172 20.4636 -5.99286 0.437951 -0 1.57927 -1.8831 1.23699 18.6039 -2.65601 9.27998 24.4238 -69.6326 131.994 170.717 -167.719 -0 59.5629 45.6509 136.414 -96.2833 161.294 0.670205 43.1018 -0.0344061 178.914 179.979 168.505 2.39405 0 0 174.343 141.208 170.289 169.539 178.103 179.973 174.104 179.953 169.253 0.888369 0 0
 -72.5119 90.8794 -237.264 37.5466 -61.7414 36.7754 8.67521e-06 -0.00282598 0.175887 167.682 -179.994 -179.707 166.796 -179.983 -179.707 169.131 -179.997 -179.824 2.0941 0.00214234 0.0585897 17.5982 3.62016 3.40035 5.31328 -0.308722 1.27421 1.3786 -5.54916 2.78044 8.53689 -36.0818 69.9035 20.2549 -5.98777 0.465039 -0 1.59534 -1.08283 1.11444 18.3983 -2.39138 9.34479 25.6751 -68.9599 131.382 169.755 -166.309 -0 58.7366 44.5671 139.637 -96.0837 163.744 1.0536 43.7495 0.0765099 179.094 179.955 168.496 2.39974 0 0 175.163 141.313 170.953 169.969 179.31 179.924 173.261 179.942 169.528 0.901048 0 0
 -72.6227 90.8541 -237.59 38.2947 -62.7025 37.3183 2.18432e-05 -0.00592979 0.211056 167.788 -179.988 -179.648 166.881 -179.964 -179.648 169.138 -179.994 -179.789 2.27579 0.00279365 0.0702965 18.0176 4.24381 3.35852 5.43865 0.50179 1.31005 1.36489 -4.60095 2.73413 7.65722 -35.2024 70.7654 19.9797 -5.99964 0.160185 -0 1.66511 -0.498813 1.27192 18.0593 -2.72693 9.25363 26.3517 -68.5387 131.26 169.123 -165.554 -0 57.6592 43.7469 147.88 -96.5133 171.566 1.3499 45.1278 0.130045 179.147 179.988 168.498 2.40338 0 0 175.076 141.56 171.998 170.438 -179.104 179.868 172.738 179.949 170.094 0.957386 0 0
 -72.5795 90.8049 -237.906 38.231 -63.6899 37.0141 180 179.999 -179.742 168.058 179.998 -179.571 167.11 179.994 -179.571 169.193 179.999 -179.742 2.65997 0.00398387 0.085751 18.8641 4.90729 3.26224 5.69163 1.35061 1.33752 1.3562 -3.88945 2.70231 9.66819 -34.9143 71.9408 19.7234 -6.17253 0.158294 -0 1.29333 -0.229991 1.44718 17.2724 -3.09574 8.49653 26.3218 -68.5241 131.522 168.823 -165.139 -0 56.3371 43.0517 154.825 -97.0072 177.938 1.6814 45.9711 0.134469 178.945 -179.95 168.519 2.4031 0 0 174.725 141.822 173.014 170.747 -177.372 -179.996 173.371 179.93 170.699 1.01263 0 0
 -72.7695 90.6712 -237.955 38.2905 -64.7393 36.7108 2.82537e-05 -0.00456816 0.354365 168.3 -179.991 -179.409 167.35 -179.973 -179.409 169.351 -179.995 -179.646 2.74676 0.00566059 0.117986 18.843 5.68601 3.80002 5.69685 1.53574 1.55553 1.45594 -2.08815 2.86016 11.1745 -34.2002 71.5783 19.3085 -5.86867 0.160468 -0 1.0471 -0.286137 1.40923 17.0343 -3.01222 8.78418 26.573 -69.0363 131.968 168.483 -165.122 -0 54.4954 42.2283 162.499 -98.2858 -175.059 1.08721 45.9546 0.0693483 178.218 -179.927 168.506 2.40695 0 0 173.983 142.543 173.926 172.453 -175.485 179.874 174.556 179.943 171.278 1.06372 0 0
 -72.7996 90.631 -238.12 38.5295 -65.1647 36.2989 0.000106869 -0.0142707 0.429063 168.496 -179.971 -179.285 167.567 -179.914 -179.285 169.54 -179.986 -179.571 2.67721 0.00668039 0.142865 18.4448 6.32511 4.03549 5.58241 2.0995 1.66287 1.42549 -0.666056 2.76654 13.2886 -33.7318 72.3176 18.958 -6.10959 0.42271 -0 0.776268 -0.171965 1.32726 17.1172 -2.83761 9.5793 26.8874 -69.9443 132.486 168.381 -165.304 -0 52.7648 41.4607 169.48 -99.7599 -168.849 0.846168 45.9434 0.252194 177.841 -179.932 168.529 2.40936 0 0 172.731 143.144 175.468 173.953 -173.88 -179.725 175.971 179.943 171.826 1.1107 0 0
 -72.8222 90.649 -238.37 39.252 -65.5536 36.3617 1.25618e-06 -0.000147513 0.487906 168.608 -180 -179.187 167.705 -179.999 -179.187 169.695 -180 -179.512 2.52797 0.00717338 0.162477 17.9128 6.90678 4.15541 5.42493 2.81705 1.72833 1.40285 0.693444 2.68924 14.66 -33.1692 73.1215 18.6101 -6.31243 0.434019 -0 0.477093 -0.125138 1.1897 16.6851 -2.53975 9.64556 26.6811 -70.4404 133.185 168.834 -165.964 -0 51.0279 40.7924 175.178 -101.321 -163.755 1.18331 45.9612 0.255443 178.247 -179.948 168.535 2.41157 0 0 171.816 143.856 176.698 175.038 -172.204 179.93 177.252 179.979 172.268 1.15209 0 0
 -72.664 90.6612 -238.945 39.9178 -65.5616 36.9408 0.000201052 -0.0300505 0.383331 168.691 -179.94 -179.361 167.795 -179.82 -179.361 169.769 -179.97 -179.617 2.50978 0.00559535 0.127655 17.791 6.3607 4.00188 5.38441 2.36135 1.64333 1.44676 2.13251 2.73544 14.38 -32.2215 73.6521 18.2588 -6.0926 0.29272 -0 0.357227 -0.0436828 1.13211 16.5685 -2.4158 9.54484 26.5945 -70.5814 133.738 169.356 -166.786 -0 49.4736 40.0532 179.911 -103.331 -159.34 1.20803 26.8072 -0.0533063 177.529 179.77 168.454 2.41358 0 0 171.049 144.601 177.78 175.966 -170.69 179.947 178.093 -179.979 172.633 1.18914 0 0
